<svg fill="none" height="495" viewBox="0 0 945 495" width="945" xmlns="http://www.w3.org/2000/svg" xmlns:xlink="http://www.w3.org/1999/xlink"><clipPath id="clip0_3810_64"><path d="M0 0H945V495H0Z"/></clipPath><g clip-path="url(#clip0_3810_64)"><path d="M0 0H945V495H0Z" fill="#f8f8f8"/><path d="M510.03 466.01H360.335C343.472 466.01 330.212 451.6 331.611 434.794L348.895 228.149 490.714 157.23 533.044 311.62 510.03 466.01Z" fill="#3d3d3d"/><path d="M594.688 466.01H444.993L421.979 311.62 464.328 157.23 606.128 228.149 621.688 414.195 623.412 434.794C624.811 451.6 611.551 466.01 594.688 466.01Z" fill="#3d3d3d"/><path d="M376.239 414.444H497.747V151.309L418.799 132.396C371.87 121.167 323.505 145.867 305.799 190.745 305.684 191.032 305.569 191.339 305.454 191.626L303.825 308.707C303.691 309.052 303.758 319.703 303.624 320.028 305.655 392.273 322.163 414.425 376.258 414.425L376.239 414.444Z" fill="#3d3d3d"/><path d="M571.751 414.425H450.244V151.309L529.192 132.396C533.523 131.342 537.834 130.614 542.165 130.212 542.989 130.116 543.813 130.039 544.598 129.982 550.232 129.56 555.827 129.618 561.327 130.154 578.63 131.821 595.091 138.087 608.964 148.09 609.022 148.128 609.06 148.167 609.137 148.205 610.133 148.933 611.11 149.661 612.069 150.408 625.137 160.66 635.695 174.342 642.153 190.726 642.268 191.013 642.383 191.301 642.498 191.607L644.127 308.669C644.127 309.104 644.012 337.542 644.595 382.229 645.515 452.756 625.808 414.406 571.713 414.406L571.751 414.425Z" fill="#3d3d3d"/><path d="M550.059 49.8453 558.778 107.083C563.837 140.272 541.034 171.314 507.845 176.373L451.7 184.939C418.511 189.998 387.468 167.195 382.39 134.006L373.423 75.2161C366.984 33.0976 382.333-9.44248 414.181-37.7642L422.114-44.8159C433.592-55.0102 449.88-57.6545 463.983-51.6184L475.212-46.8087C515.204-29.6777 543.487 6.84538 550.041 49.8453H550.059Z" fill="#000000"/><path d="M540.555 155.831 482.034 182.927 417.515 170.74 415.234 59.3498 508.899 45.0548 540.574 155.831H540.555Z" fill="#f4c9b8"/><path d="M472.587 121.148C440.203 126.092 413.357 113.694 407.359 82.7277L397.835 33.6725C391.263-.206289 414.2-32.7437 448.289-37.9366 482.379-43.1488 513.977-18.9277 517.829 15.3534L523.367 65.0218C526.873 96.352 504.952 116.223 472.587 121.148Z" fill="#f4c9b8"/><path d="M517.484 12.8623C517.618 13.6863 517.714 14.5103 517.829 15.3534L518.155 18.2852 523.367 65.0026C523.712 67.9536 523.807 70.7704 523.711 73.5106L449.669 57.7018C436.045 54.7892 422.018 60.1163 413.759 71.3453L406.918 80.639 397.816 33.6916C397.624 32.7143 397.452 31.7179 397.299 30.7598 392.565-2.04586 415.177-32.8586 448.27-37.9175 481.382-42.9763 512.425-20.0775 517.465 12.8815H517.484V12.8623Z" fill="#cea193"/><path d="M415.196 46.9326C414.066 39.5169 407.129 34.4197 399.694 35.5503 392.278 36.6809 387.181 43.5984 388.312 51.0333 389.442 58.4491 397.318 69.6398 404.734 68.5093 412.169 67.3787 416.327 54.3292 415.196 46.9135V46.9326Z" fill="#cea193"/><path d="M532.066 29.0735C530.936 21.6577 523.999 16.5606 516.564 17.6912 509.148 18.8217 504.051 25.7393 505.182 33.1742 506.312 40.59 514.188 51.7807 521.604 50.6501 529.019 49.5196 533.197 36.4701 532.066 29.0543V29.0735Z" fill="#cea193"/><path d="M462.373 73.434C461.799 73.5298 461.224 73.3382 460.821 72.8783 460.17 72.1884 460.246 71.077 460.955 70.4255 461.779 69.6782 481.727 51.9723 498.168 53.0454 499.126 53.1029 499.855 53.9269 499.778 54.885 499.701 55.8431 498.896 56.5712 497.938 56.4946 482.954 55.5365 463.446 72.8399 463.255 73.0124 462.987 73.2423 462.68 73.3765 462.354 73.434H462.373Z" fill="#000000"/><path d="M477.607 30.9705C479.562 35.4162 480.482 39.3061 478.45 40.1684 476.477 41.0499 474.216 37.7348 472.28 33.2892 470.326 28.8435 475.672 26.5249 477.588 30.9705H477.607V30.9705Z" fill="#000000"/><path d="M434.627 37.5432C436.581 41.9888 437.501 45.8787 435.489 46.741 433.477 47.6225 431.235 44.3074 429.3 39.8618 427.345 35.4162 432.691 33.0975 434.607 37.5432H434.627Z" fill="#000000"/><path d="M427.709 42.7745C425.429 43.1194 423.168 43.4452 420.887 43.7518 418.511 44.0392 416.327 42.3529 416.02 39.996 415.733 37.6199 417.381 35.4162 419.776 35.1288 451.911 30.9897 485.292 20.738 485.617 20.6422 487.917 19.9523 490.331 21.217 491.059 23.5165 491.768 25.7968 490.484 28.2304 488.204 28.9202 487.878 29.0352 458.33 38.0989 427.709 42.7553V42.7745Z" fill="#000000"/><path d="M473.047 119.921C469.348 120.496 465.707 120.822 462.201 120.937 459.94 120.995 459.48 124.156 461.626 124.846 474.771 129.062 499.969 132.051 527.87 111.452L521.048 87.5565C514.092 105.186 496.252 116.415 473.027 119.96L473.047 119.921Z" fill="#cea193"/><path d="M561.308 127.261C561.327 124.884 561.174 122.508 560.791 120.132L550.06 49.8453C543.506 6.84539 515.204-29.6969 475.231-46.8279H475.212L463.983-51.6376C449.918-57.6737 433.592-55.0293 422.114-44.835L414.181-37.7642C412.686-36.4228 411.21-35.0623 409.773-33.6635 408.336-32.2646 406.957-30.8466 405.596-29.3711 404.235-27.9148 402.913-26.4202 401.648-24.9255 400.365-23.4117 399.119-21.8596 397.931-20.3074 396.724-18.7361 395.574-17.1457 394.443-15.536 392.182-12.2976 390.113-8.98258 388.197-5.55255 387.219-3.84712 386.3-2.12252 385.437-.378758 384.556 1.365 383.713 3.12792 382.927 4.89084 375.741 20.9488 371.966 38.463 371.985 56.2838 371.985 58.545 372.043 60.7869 372.177 63.0289 372.177 63.393 372.215 63.7571 372.235 64.1403 372.388 66.5164 372.618 68.9309 372.905 71.307 373.058 72.5908 373.231 73.8747 373.442 75.1586L379.669 115.552 383.023 137.225 384.517 147.017C387.143 164.186 399.426 178.328 416.078 183.272L416.403 183.367 459.173 196.129 459.307 196.168 462.929 197.26C475.787 201.092 489.699 198.965 500.832 191.473L507.788 186.797 510.528 184.958 524.286 175.703 541.494 164.129C544.905 161.829 547.914 159.108 550.52 156.08 557.38 148.09 561.231 137.857 561.327 127.203L561.308 127.261ZM385.15 70.368C384.345 65.1942 385.686 59.9055 388.752 55.6515L389.346 54.8467 399.292 41.3373 403.546 35.5312 407.455 30.2233C415.694 19.0134 429.759 13.648 443.365 16.5798L475.653 23.4782 490.772 26.6974 504.166 29.5717C504.473 29.6484 504.76 29.7059 505.067 29.7825 510.911 31.2005 516.143 34.1132 520.32 38.0798 523.079 40.6858 525.379 43.7326 527.122 47.1435 528.77 50.3244 529.92 53.8119 530.495 57.491L536.723 98.3065C537.623 104.132 535.86 110.072 531.932 114.46L529.479 117.2 516.047 132.3 506.983 142.475 499.146 151.29 496.444 154.318C495.639 155.218 494.796 156.08 493.934 156.885 487.418 162.864 479.083 166.064 470.594 166.198 467.969 166.217 465.305 165.987 462.699 165.432 462.469 165.393 462.239 165.336 462.029 165.278 458.599 164.493 455.226 163.171 452.064 161.312L416.863 140.559 401.84 131.706C396.724 128.679 393.236 123.543 392.336 117.66L391.684 113.387 385.131 70.3872 385.15 70.368Z" fill="#3d3d3d"/><path d="M392.7 474.364 392.796 474.441H395.938C394.846 474.441 393.773 474.422 392.7 474.364V474.364Z" fill="#ff7059"/><path d="M668.52 408.676C668.52 409.002 668.52 409.155 667.639 409.309 668.214 408.811 668.52 408.6 668.52 408.676Z" fill="#000000"/><path d="M727.499 162.659C727.499 214.613 685.382 256.73 633.428 256.73 581.474 256.73 539.357 214.613 539.357 162.659 539.357 110.706 581.474 68.5887 633.428 68.5887 685.382 68.5887 727.499 110.706 727.499 162.659Z" fill="#3d3d3d"/><path d="M211.053 162.659C211.053 214.613 253.17 256.73 305.123 256.73 357.077 256.73 399.194 214.613 399.194 162.659 399.194 110.706 357.077 68.5887 305.123 68.5887 253.17 68.5887 211.053 110.706 211.053 162.659Z" fill="#3d3d3d"/><path d="M167.079 432.798V502.289L784.599 498.341 772.754 386.998 753.802 379.891V405.16L723.005 411.477 715.898 359.359 636.931 364.887 583.234 359.359V394.105L577.706 411.477 548.489 394.105 525.588 359.359 517.692 306.451H499.529V330.931H479.787V420.164L447.411 405.16 442.673 261.44H348.703V405.16H306.85V353.042H232.621L205.773 428.06 167.079 432.798Z" fill="#e3e3e3"/><g clip-rule="evenodd" fill-rule="evenodd"><path d="M272.337 220.329C273.378 220.678 273.939 221.804 273.591 222.845L236.734 332.869C236.385 333.91 235.259 334.471 234.218 334.122 233.177 333.773 232.616 332.647 232.965 331.606L269.821 221.582C270.17 220.541 271.297 219.98 272.337 220.329Z" fill="#ff7059"/><path d="M350.138 206.446C351.22 206.262 352.246 206.99 352.43 208.072L360.44 255.186C360.624 256.268 359.895 257.295 358.813 257.479 357.731 257.663 356.705 256.934 356.521 255.852L348.511 208.738C348.327 207.656 349.056 206.63 350.138 206.446Z" fill="#ff7059"/><path d="M384.593 169.943C385.428 169.232 386.683 169.332 387.394 170.168L456.577 251.404C457.289 252.239 457.188 253.494 456.353 254.206 455.517 254.917 454.263 254.817 453.551 253.981L384.368 172.745C383.656 171.909 383.757 170.655 384.593 169.943Z" fill="#ff7059"/><path d="M580.477 203.671C581.53 203.981 582.133 205.085 581.824 206.139L545.546 329.578C545.236 330.631 544.132 331.234 543.079 330.924 542.025 330.615 541.423 329.51 541.732 328.457L578.01 205.018C578.32 203.965 579.424 203.362 580.477 203.671Z" fill="#ff7059"/><path d="M667.356 220.09C668.448 219.983 669.42 220.782 669.527 221.875L680.364 332.593C680.47 333.685 679.672 334.658 678.579 334.765 677.487 334.871 676.514 334.073 676.407 332.98L665.571 222.262C665.464 221.169 666.263 220.197 667.356 220.09Z" fill="#ff7059"/><path d="M699.265 202.814C700.271 202.375 701.442 202.836 701.88 203.842L778.205 379.107C778.644 380.114 778.183 381.285 777.177 381.723 776.17 382.161 774.999 381.701 774.561 380.694L698.236 205.429C697.798 204.423 698.258 203.252 699.265 202.814Z" fill="#ff7059"/><path d="M644.668 77.2984C650.126 77.7628 656.004 79.0999 663.034 81.5115L668.211 84.0371C677.389 88.5147 685.362 95.5953 689.887 104.75 692.671 110.376 695.409 122.716 698.219 135.375L698.219 135.375 698.219 135.377 698.219 135.378 698.219 135.378 698.219 135.378C699.026 139.013 699.839 142.674 700.66 146.21 700.66 146.213 700.657 146.215 700.655 146.213V146.213C700.653 146.212 700.65 146.214 700.65 146.216L700.91 147.286C701.099 148.09 701.287 148.886 701.474 149.67 701.647 150.391 701.913 151.085 702.145 151.789 702.369 152.467 702.529 153.2 702.615 153.992L702.677 154.553C702.715 154.704 702.754 154.855 702.792 155.006 702.799 155.031 702.789 155.057 702.768 155.071V155.071C702.748 155.084 702.737 155.107 702.74 155.13L704.444 170.737C704.508 171.316 704.629 171.887 704.73 172.462 704.833 173.051 704.888 173.677 704.888 174.339V202.824C704.888 214.921 686.6 214.921 686.6 202.824V178.799C686.6 177.709 686.394 176.633 686.168 175.568V175.568L683.119 161.256C682.786 159.694 681.411 158.618 679.818 158.735V158.735C678.013 158.868 676.601 160.47 676.798 162.269L677.975 173.042C678.038 173.622 678.157 174.195 678.272 174.767 678.455 175.676 678.552 176.649 678.552 177.687V216.984C678.552 233.672 653.325 233.672 653.325 216.984V183.407C653.325 182.198 653.102 181.003 652.824 179.826 652.789 179.678 652.756 179.528 652.723 179.377L648.973 161.777C648.739 160.681 647.772 159.901 646.652 159.904V159.904C645.397 159.908 644.357 160.886 644.287 162.139L643.155 182.379C643.122 182.968 643.068 183.541 642.993 184.098V226.158C642.993 244.702 614.959 244.702 614.959 226.158V188.496C614.959 187.722 614.867 186.952 614.753 186.187 614.648 185.481 614.577 184.744 614.542 183.976L613.629 163.788C613.502 160.968 611.186 158.687 608.374 158.431V158.431C605.511 158.17 602.979 160.079 602.391 162.894L602.05 164.522V164.522C601.967 164.92 601.915 165.325 601.911 165.732L601.536 199.315C601.536 217.859 573.502 217.859 573.502 199.315V165.503C573.502 164.706 573.554 163.942 573.655 163.211 573.656 162.918 573.662 162.622 573.674 162.321V162.321C573.769 159.988 570.989 158.714 569.283 160.308L569.231 160.357C569.135 160.446 569.032 160.529 568.925 160.604 565.571 162.946 563.316 165.581 561.125 168.141 557.236 172.685 553.55 176.993 544.28 179.009 529.703 182.18 517.854 172.423 525.421 166.435 528.961 163.631 532.502 160.826 536.044 158.022L536.108 157.971C539.172 155.544 542.235 153.118 545.298 150.692 546.2 149.978 546.985 149.129 547.626 148.175 550.958 143.217 554.289 138.258 557.62 133.3L557.631 133.284C560.569 128.911 563.506 124.539 566.444 120.166 566.446 120.164 566.446 120.16 566.444 120.157V120.157C566.442 120.155 566.442 120.151 566.443 120.149 566.697 119.66 567.003 119.051 567.345 118.369 568.984 115.099 571.46 110.157 573.16 108.834 594.099 92.5264 618.223 75.0485 644.668 77.2984ZM583.26 132.531C583.26 132.531 583.26 132.532 583.26 132.532V132.532C583.26 132.533 583.262 132.534 583.263 132.533 587.247 128.416 591.252 124.679 595.386 123.196 599.756 121.626 603.147 123.553 606.405 125.404 608.703 126.71 610.934 127.978 613.396 127.953 616.297 127.923 618.909 126.611 621.475 125.323 624.177 123.966 626.828 122.635 629.709 122.855 632.664 123.08 635.157 124.876 637.641 126.665 639.879 128.276 642.108 129.882 644.661 130.331 647.201 130.777 649.56 130.032 651.973 129.269 654.678 128.413 657.453 127.536 660.632 128.291 663.999 129.09 667.728 131.607 671.265 133.993 674.046 135.87 676.708 137.666 678.981 138.483 681.696 139.459 683.735 139.173 685.642 138.905 687.361 138.663 688.973 138.437 690.875 139.163 690.944 139.19 691.012 139.215 691.08 139.24L691.035 139.222C690.982 139.201 690.928 139.18 690.875 139.16 688.973 138.433 687.361 138.659 685.642 138.901 683.735 139.169 681.696 139.456 678.981 138.48 676.709 137.664 674.047 135.867 671.264 133.99 667.728 131.603 663.998 129.086 660.632 128.287 657.453 127.533 654.678 128.41 651.973 129.265 649.559 130.028 647.201 130.773 644.661 130.327 642.109 129.878 639.88 128.273 637.644 126.662 635.16 124.873 632.666 123.076 629.709 122.851 626.825 122.631 624.173 123.963 621.47 125.32 618.905 126.608 616.294 127.92 613.396 127.949 610.934 127.974 608.702 126.706 606.404 125.401 603.147 123.551 599.755 121.624 595.386 123.193 591.252 124.677 587.245 128.414 583.26 132.531Z" fill="#f4c9b8"/><path d="M649.788 206.72C650.086 205.664 651.185 205.05 652.241 205.348L659.476 207.393C663.701 208.587 668.171 208.612 672.409 207.464L680.241 205.343C681.301 205.056 682.392 205.682 682.679 206.741 682.966 207.801 682.34 208.892 681.28 209.179L673.448 211.301C668.515 212.636 663.313 212.608 658.395 211.218L651.16 209.173C650.104 208.875 649.489 207.777 649.788 206.72Z" fill="#ff7059"/><path d="M605.065 190.898C605.396 191.945 604.815 193.061 603.768 193.392L596.331 195.74C590.974 197.432 585.233 197.486 579.845 195.896L571.394 193.403C570.341 193.092 569.74 191.987 570.05 190.934 570.361 189.881 571.466 189.279 572.519 189.59L580.97 192.084C585.6 193.45 590.531 193.403 595.134 191.95L602.571 189.601C603.618 189.271 604.735 189.851 605.065 190.898Z" fill="#ff7059"/><path d="M570.165 183.121C570.841 182.256 572.089 182.102 572.955 182.777L586.254 193.158C589.54 195.722 593.432 197.397 597.554 198.019L602.853 198.819C603.938 198.982 604.685 199.995 604.521 201.08 604.357 202.166 603.345 202.913 602.259 202.749L596.961 201.949C592.163 201.225 587.633 199.276 583.809 196.291L570.509 185.911C569.644 185.236 569.49 183.987 570.165 183.121Z" fill="#ff7059"/><path d="M707.652 195.712C708.054 196.733 707.552 197.887 706.531 198.29L705.998 198.5C699.316 201.132 691.871 201.051 685.248 198.273 684.236 197.849 683.759 196.684 684.184 195.672 684.608 194.66 685.773 194.183 686.785 194.608 692.452 196.984 698.824 197.054 704.541 194.801L705.074 194.591C706.095 194.189 707.249 194.691 707.652 195.712Z" fill="#ff7059"/><path d="M649.758 201.583C649.991 200.51 651.05 199.83 652.123 200.063L660.887 201.968C664.212 202.691 667.652 202.706 670.983 202.012L680.356 200.059C681.43 199.836 682.483 200.525 682.707 201.6 682.93 202.674 682.241 203.727 681.166 203.951L671.794 205.904C667.916 206.711 663.913 206.694 660.042 205.853L651.278 203.947C650.205 203.714 649.525 202.656 649.758 201.583Z" fill="#ff7059"/><path d="M293.884 77.2984C288.425 77.7628 282.547 79.0999 275.518 81.5115L270.341 84.0371C261.163 88.5147 253.19 95.5953 248.665 104.75 245.881 110.376 243.142 122.716 240.333 135.375L240.333 135.375 240.332 135.377 240.332 135.378 240.332 135.378 240.332 135.378C239.525 139.013 238.713 142.674 237.892 146.21 237.891 146.213 237.894 146.215 237.897 146.213V146.213C237.899 146.212 237.902 146.214 237.901 146.216L237.642 147.286C237.453 148.09 237.265 148.885 237.077 149.669 236.905 150.39 236.638 151.085 236.406 151.789 236.183 152.467 236.023 153.2 235.936 153.992L235.875 154.553C235.836 154.705 235.798 154.856 235.759 155.006 235.753 155.031 235.762 155.057 235.784 155.071V155.071C235.803 155.084 235.815 155.107 235.812 155.13L234.107 170.736C234.044 171.316 233.923 171.887 233.822 172.461 233.718 173.051 233.663 173.677 233.663 174.339V202.824C233.663 214.921 251.952 214.921 251.952 202.824V178.799C251.952 177.709 252.157 176.633 252.384 175.568V175.568L255.433 161.256C255.766 159.694 257.14 158.618 258.733 158.735V158.735C260.538 158.868 261.95 160.47 261.754 162.269L260.577 173.043C260.513 173.623 260.395 174.195 260.28 174.768 260.097 175.676 259.999 176.649 259.999 177.687V216.984C259.999 233.672 285.227 233.672 285.227 216.984V183.407C285.227 182.198 285.45 181.003 285.727 179.826 285.762 179.678 285.796 179.528 285.828 179.377L289.579 161.777C289.812 160.681 290.78 159.901 291.9 159.904V159.904C293.154 159.908 294.195 160.886 294.265 162.139L295.397 182.379C295.43 182.968 295.484 183.541 295.558 184.099V226.158C295.558 244.702 323.593 244.702 323.593 226.158V188.496C323.593 187.722 323.684 186.952 323.798 186.187 323.904 185.481 323.975 184.744 324.01 183.976L324.922 163.788C325.05 160.968 327.366 158.687 330.177 158.431V158.431C333.04 158.17 335.573 160.079 336.161 162.894L336.501 164.522V164.522C336.584 164.921 336.636 165.325 336.641 165.732L337.016 199.315C337.016 217.859 365.05 217.859 365.05 199.315V165.503C365.05 164.705 364.997 163.941 364.897 163.211 364.896 162.918 364.889 162.621 364.877 162.321V162.321C364.783 159.988 367.563 158.714 369.268 160.308L369.321 160.357C369.416 160.446 369.519 160.529 369.627 160.604 372.981 162.946 375.236 165.581 377.427 168.141 381.315 172.685 385.001 176.993 394.271 179.009 408.848 182.18 420.697 172.423 413.131 166.435 409.593 163.633 406.053 160.83 402.514 158.026 399.427 155.581 396.34 153.136 393.253 150.692 392.352 149.978 391.567 149.129 390.925 148.175 387.594 143.218 384.263 138.26 380.932 133.302L380.918 133.281 380.853 133.183C377.938 128.844 375.023 124.505 372.107 120.166 372.106 120.163 372.106 120.16 372.108 120.157V120.157C372.11 120.155 372.11 120.151 372.109 120.149 371.854 119.66 371.549 119.051 371.207 118.369 369.568 115.099 367.091 110.157 365.392 108.834 344.453 92.5264 320.328 75.0485 293.884 77.2984ZM355.291 132.531C355.291 132.531 355.292 132.532 355.291 132.532V132.532C355.291 132.533 355.29 132.534 355.289 132.533 351.305 128.416 347.299 124.679 343.166 123.196 338.796 121.626 335.404 123.553 332.147 125.404 329.849 126.71 327.617 127.978 325.156 127.953 322.255 127.923 319.642 126.611 317.076 125.323 314.374 123.966 311.724 122.635 308.843 122.855 305.888 123.08 303.394 124.876 300.91 126.665 298.673 128.276 296.443 129.882 293.89 130.331 291.35 130.777 288.992 130.032 286.579 129.269 283.873 128.413 281.099 127.536 277.92 128.291 274.553 129.09 270.823 131.607 267.287 133.993 264.506 135.87 261.844 137.666 259.571 138.483 256.856 139.459 254.817 139.173 252.909 138.905 251.19 138.663 249.579 138.437 247.677 139.163 247.607 139.19 247.538 139.216 247.47 139.241 247.538 139.213 247.607 139.186 247.677 139.16 249.579 138.433 251.19 138.659 252.909 138.901 254.816 139.169 256.856 139.456 259.571 138.48 261.842 137.664 264.505 135.867 267.287 133.99 270.823 131.603 274.553 129.086 277.92 128.287 281.098 127.533 283.873 128.41 286.578 129.265 288.992 130.028 291.35 130.773 293.89 130.327 296.443 129.878 298.671 128.273 300.907 126.662 303.392 124.873 305.885 123.076 308.843 122.851 311.726 122.631 314.378 123.963 317.081 125.32 319.647 126.608 322.258 127.92 325.155 127.949 327.617 127.974 329.849 126.706 332.148 125.401 335.405 123.551 338.796 121.624 343.166 123.193 347.299 124.677 351.306 128.414 355.291 132.531Z" fill="#f4c9b8"/><path d="M367.817 184.532C368.168 185.572 367.609 186.699 366.569 187.05L359.203 189.534C352.91 191.656 346.071 191.491 339.888 189.068L334.656 187.017C333.634 186.617 333.13 185.464 333.53 184.442 333.931 183.42 335.084 182.916 336.106 183.316L341.338 185.367C346.65 187.449 352.527 187.59 357.933 185.767L365.299 183.284C366.339 182.933 367.466 183.492 367.817 184.532Z" fill="#ff7059"/><path d="M257.388 204.435C257.939 203.486 259.155 203.164 260.105 203.715L260.808 204.123C268.337 208.495 277.631 208.495 285.159 204.123L285.863 203.715C286.812 203.164 288.029 203.486 288.58 204.435 289.131 205.385 288.808 206.601 287.859 207.152L287.155 207.561C278.393 212.649 267.575 212.649 258.812 207.561L258.109 207.152C257.159 206.601 256.837 205.385 257.388 204.435Z" fill="#ff7059"/><path d="M257.346 196.215C258.185 195.508 259.439 195.616 260.146 196.455L267.137 204.757C271.225 209.612 277.054 212.67 283.373 213.275L286.31 213.556C287.402 213.661 288.203 214.631 288.099 215.724 287.994 216.817 287.023 217.618 285.931 217.513L282.994 217.232C275.64 216.528 268.855 212.968 264.096 207.317L257.106 199.016C256.399 198.176 256.506 196.922 257.346 196.215Z" fill="#ff7059"/><path d="M405.093 156.867C406.139 157.199 406.718 158.316 406.386 159.362 403.991 166.906 398.209 172.899 390.755 175.561L385.107 177.579C384.073 177.948 382.936 177.409 382.567 176.376 382.198 175.342 382.736 174.205 383.77 173.836L389.418 171.818C395.703 169.573 400.578 164.521 402.597 158.16 402.929 157.113 404.047 156.534 405.093 156.867Z" fill="#ff7059"/><path d="M333.176 190.251C333.595 189.236 334.758 188.753 335.772 189.173L341.686 191.615C347.738 194.115 354.544 194.061 360.555 191.465L365.836 189.185C366.843 188.75 368.013 189.214 368.448 190.222 368.883 191.229 368.419 192.399 367.412 192.834L362.131 195.114C355.134 198.136 347.213 198.199 340.169 195.289L334.255 192.846C333.24 192.427 332.757 191.265 333.176 190.251Z" fill="#ff7059"/><path d="M617.062 429.477C619.257 429.477 621.037 427.698 621.037 425.502V420.86C621.037 418.664 619.257 416.885 617.062 416.885H614.462C612.267 416.885 610.487 418.664 610.487 420.86V425.502C610.487 427.698 612.267 429.477 614.462 429.477H617.062ZM649.072 441.649C650.444 441.649 651.557 440.537 651.557 439.164V420.649C651.557 419.277 650.444 418.165 649.072 418.165V418.165C647.7 418.165 646.588 419.277 646.588 420.649V439.164C646.588 440.537 647.7 441.649 649.072 441.649V441.649ZM649.072 398.632C650.444 398.632 651.557 397.519 651.557 396.147V377.632C651.557 376.26 650.444 375.148 649.072 375.148V375.148C647.7 375.148 646.588 376.26 646.588 377.632V396.147C646.588 397.519 647.7 398.632 649.072 398.632V398.632ZM594.818 335.788 637.064 356.092V356.092C637.216 356.165 637.382 356.203 637.55 356.203H651.716C653.911 356.203 655.691 354.423 655.691 352.228V343.547C655.691 342.275 656.724 341.241 657.996 341.241H668.927C671.122 341.241 672.902 339.462 672.902 337.266V331.797C672.902 330.525 673.936 329.491 675.208 329.491H713.614C714.886 329.491 715.919 330.525 715.919 331.797V337.266C715.919 339.462 717.699 341.241 719.894 341.241H730.825C732.097 341.241 733.131 342.275 733.131 343.547V389.319C733.131 392.234 736.164 394.157 738.8 392.915L747.373 388.874C747.74 388.701 747.973 388.333 747.973 387.928V386.886C747.973 386.884 747.975 386.882 747.977 386.882V386.882C747.979 386.882 747.981 386.88 747.981 386.878V368.422C747.981 367.15 749.015 366.125 750.279 366.125 750.597 366.125 750.907 366.188 751.185 366.307L778.914 377.31C779.811 377.667 780.368 378.532 780.369 379.445 780.369 379.447 780.371 379.449 780.373 379.449V379.449C780.375 379.449 780.377 379.45 780.377 379.453V404.849C780.377 407.044 782.157 408.824 784.352 408.824H803.607C804.879 408.824 805.912 409.857 805.912 411.129V496.758C805.912 498.03 804.879 499.063 803.607 499.063H750.287L730.833 499.055 717.501 499.063H164.059C162.787 499.063 161.754 498.03 161.754 496.758V423.873C161.754 422.601 162.787 421.567 164.059 421.567H183.012C185.207 421.567 186.987 419.788 186.987 417.592V404.077C186.987 403.322 187.353 402.646 187.917 402.225L202.593 390.086 202.783 389.927C203.459 389.37 204.365 389.259 205.121 389.569L205.232 389.601V389.601C206.46 389.99 207.712 389.074 207.712 387.785V344.664C207.712 344.662 207.714 344.66 207.716 344.66V344.66C207.719 344.66 207.72 344.658 207.72 344.656V344.318C207.72 343.046 208.754 342.02 210.018 342.02L210.391 342.012H229.575C231.77 342.012 233.55 340.233 233.55 338.037V330.906C233.55 329.634 234.583 328.601 235.855 328.601H252.804C255 328.601 256.779 326.821 256.779 324.626V317.495C256.779 316.223 257.813 315.189 259.085 315.189H266.613C267.885 315.189 268.919 316.223 268.919 317.495V324.626C268.919 326.821 270.698 328.601 272.894 328.601H289.803C291.075 328.601 292.109 329.634 292.109 330.906V338.037C292.109 340.233 293.888 342.012 296.084 342.012H315.641C316.913 342.012 317.946 343.046 317.946 344.318V382.207C317.946 384.403 319.726 386.182 321.921 386.182H329.442C331.637 386.182 333.417 384.403 333.417 382.207V253.267C333.417 251.995 334.45 250.962 335.722 250.962H368.213C370.409 250.962 372.188 249.182 372.188 246.987V238.345C372.188 237.073 373.222 236.04 374.494 236.04H415.523C416.795 236.04 417.829 237.073 417.829 238.345V246.979C417.829 249.174 419.608 250.954 421.804 250.954H455.67C456.942 250.954 457.976 251.987 457.976 253.259V388.942C457.976 390.674 459.097 392.207 460.748 392.731L466.066 394.42C468.63 395.234 471.244 393.32 471.244 390.631V323.004C471.244 321.732 472.278 320.699 473.55 320.699H488.583C489.071 320.699 489.466 320.304 489.466 319.816V319.816L489.458 307.235C489.458 307.233 489.456 307.231 489.454 307.231V307.231C489.451 307.231 489.45 307.23 489.45 307.228V307.088C489.45 306.429 489.728 305.832 490.173 305.411L507.901 286.363 508.18 286.069C509.046 285.139 510.501 285.083 511.431 285.95 511.471 285.989 511.511 286.029 511.55 286.069L511.558 286.077 511.821 286.363 529.541 305.403C529.581 305.451 529.621 305.49 529.66 305.538 530.057 305.974 530.256 306.521 530.257 307.076 530.257 307.079 530.258 307.08 530.261 307.08V307.08C530.263 307.08 530.265 307.082 530.265 307.084V316.732C530.265 318.927 532.044 320.707 534.24 320.707H546.188C547.46 320.707 548.494 321.74 548.494 323.012V371.133C548.494 373.328 550.273 375.108 552.469 375.108H567.534C568.806 375.108 569.839 376.141 569.839 377.413V397.121C569.839 398.939 571.313 400.413 573.131 400.413V400.413C574.948 400.413 576.422 398.939 576.422 397.121V356.505C576.422 355.909 576.644 355.368 577.018 354.963L591.876 336.36C592.592 335.462 593.848 335.239 594.818 335.788ZM764.724 455.418C766.423 455.418 767.8 454.041 767.8 452.341V436.346C767.8 434.647 766.423 433.27 764.724 433.27V433.27C763.025 433.27 761.647 434.647 761.647 436.346V452.341C761.647 454.041 763.025 455.418 764.724 455.418V455.418ZM764.724 411.129C766.423 411.129 767.8 409.752 767.8 408.052V392.057C767.8 390.358 766.423 388.981 764.724 388.981V388.981C763.025 388.981 761.647 390.358 761.647 392.057V408.052C761.647 409.752 763.025 411.129 764.724 411.129V411.129ZM173.909 461.42C173.909 463.616 175.689 465.395 177.884 465.395H180.484C182.679 465.395 184.459 463.616 184.459 461.42V460.188C184.459 457.993 182.679 456.213 180.484 456.213H177.884C175.689 456.213 173.909 457.993 173.909 460.188V461.42ZM184.459 478.552C184.459 476.357 182.679 474.577 180.484 474.577H177.884C175.689 474.577 173.909 476.357 173.909 478.552V479.777C173.909 481.972 175.689 483.752 177.884 483.752H180.484C182.679 483.752 184.459 481.972 184.459 479.777V478.552ZM173.909 443.064C173.909 445.259 175.689 447.039 177.884 447.039H180.484C182.679 447.039 184.459 445.259 184.459 443.064V441.84C184.459 439.644 182.679 437.865 180.484 437.865H177.884C175.689 437.865 173.909 439.644 173.909 441.84V443.064ZM343.553 449.13C343.553 451.325 345.332 453.105 347.528 453.105H349.467C351.663 453.105 353.442 451.325 353.442 449.13V444.487C353.442 442.292 351.663 440.512 349.467 440.512H347.528C345.332 440.512 343.553 442.292 343.553 444.487V449.13ZM350.686 478.282C352.208 478.282 353.442 477.048 353.442 475.525V469.664C353.442 467.469 351.663 465.689 349.467 465.689H347.528C345.332 465.689 343.553 467.469 343.553 469.664V475.651C343.553 477.104 344.731 478.282 346.184 478.282V478.282H350.686V478.282ZM324.624 449.13C324.624 451.325 326.404 453.105 328.599 453.105H330.539C332.734 453.105 334.514 451.325 334.514 449.13V444.487C334.514 442.292 332.734 440.512 330.539 440.512H328.599C326.404 440.512 324.624 442.292 324.624 444.487V449.13ZM334.514 469.672C334.514 467.477 332.734 465.697 330.539 465.697H328.599C326.404 465.697 324.624 467.477 324.624 469.672V474.315C324.624 476.51 326.404 478.29 328.599 478.29H330.539C332.734 478.29 334.514 476.51 334.514 474.315V469.672ZM349.467 427.927C351.663 427.927 353.442 426.148 353.442 423.952V419.309C353.442 417.114 351.663 415.335 349.467 415.335H347.528C345.332 415.335 343.553 417.114 343.553 419.309V423.952C343.553 426.148 345.332 427.927 347.528 427.927H349.467ZM324.624 423.952C324.624 426.148 326.404 427.927 328.599 427.927H330.539C332.734 427.927 334.514 426.148 334.514 423.952V419.309C334.514 417.114 332.734 415.335 330.539 415.335H328.599C326.404 415.335 324.624 417.114 324.624 419.309V423.952ZM285.82 465.228C288.016 465.228 289.795 463.449 289.795 461.253V459.385C289.795 457.19 288.016 455.41 285.82 455.41H282.982C280.787 455.41 279.007 457.19 279.007 459.385V461.253C279.007 463.449 280.787 465.228 282.982 465.228H285.82ZM289.795 479.021C289.795 476.826 288.016 475.046 285.82 475.046H282.982C280.787 475.046 279.007 476.826 279.007 479.021V480.89C279.007 483.085 280.787 484.865 282.982 484.865H285.82C288.016 484.865 289.795 483.085 289.795 480.89V479.021ZM285.82 445.584C288.016 445.584 289.795 443.804 289.795 441.609V439.741C289.795 437.545 288.016 435.766 285.82 435.766H282.982C280.787 435.766 279.007 437.545 279.007 439.741V441.609C279.007 443.804 280.787 445.584 282.982 445.584H285.82ZM264.244 484.865C266.44 484.865 268.219 483.085 268.219 480.89V479.021C268.219 476.826 266.44 475.046 264.244 475.046H261.406C259.211 475.046 257.431 476.826 257.431 479.021V480.89C257.431 483.085 259.211 484.865 261.406 484.865H264.244ZM264.244 465.22C266.44 465.22 268.219 463.441 268.219 461.245V459.377C268.219 457.182 266.44 455.402 264.244 455.402H261.406C259.211 455.402 257.431 457.182 257.431 459.377V461.245C257.431 463.441 259.211 465.22 261.406 465.22H264.244ZM264.244 445.576C266.44 445.576 268.219 443.796 268.219 441.601V439.733C268.219 437.538 266.44 435.758 264.244 435.758H261.406C259.211 435.758 257.431 437.538 257.431 439.733V441.601C257.431 443.796 259.211 445.576 261.406 445.576H264.244ZM242.668 465.22C244.863 465.22 246.643 463.441 246.643 461.245V459.377C246.643 457.182 244.863 455.402 242.668 455.402H239.83C237.635 455.402 235.855 457.182 235.855 459.377V461.245C235.855 463.441 237.635 465.22 239.83 465.22H242.668ZM242.668 445.576C244.863 445.576 246.643 443.796 246.643 441.601V439.733C246.643 437.538 244.863 435.758 242.668 435.758H239.83C237.635 435.758 235.855 437.538 235.855 439.733V441.601C235.855 443.796 237.635 445.576 239.83 445.576H242.668ZM279.015 412.139C279.015 414.334 280.795 416.114 282.99 416.114H285.828C288.024 416.114 289.803 414.334 289.803 412.139V410.27C289.803 408.075 288.024 406.295 285.828 406.295H282.99C280.795 406.295 279.015 408.075 279.015 410.27V412.139ZM257.431 392.494C257.431 394.69 259.211 396.469 261.406 396.469H264.244C266.44 396.469 268.219 394.69 268.219 392.494V390.626C268.219 388.431 266.44 386.651 264.244 386.651H261.406C259.211 386.651 257.431 388.431 257.431 390.626V392.494ZM242.668 376.825C244.863 376.825 246.643 375.045 246.643 372.85V370.982C246.643 368.787 244.863 367.007 242.668 367.007H239.83C237.635 367.007 235.855 368.787 235.855 370.982V372.85C235.855 375.045 237.635 376.825 239.83 376.825H242.668ZM264.244 416.106C266.44 416.106 268.219 414.326 268.219 412.131V410.262C268.219 408.067 266.44 406.288 264.244 406.288H261.406C259.211 406.288 257.431 408.067 257.431 410.262V412.131C257.431 414.326 259.211 416.106 261.406 416.106H264.244ZM242.668 396.461C244.863 396.461 246.643 394.682 246.643 392.486V390.618C246.643 388.423 244.863 386.643 242.668 386.643H239.83C237.635 386.643 235.855 388.423 235.855 390.618V392.486C235.855 394.682 237.635 396.461 239.83 396.461H242.668ZM242.668 416.106C244.863 416.106 246.643 414.326 246.643 412.131V410.262C246.643 408.067 244.863 406.288 242.668 406.288H239.83C237.635 406.288 235.855 408.067 235.855 410.262V412.131C235.855 414.326 237.635 416.106 239.83 416.106H242.668ZM279.015 392.486C279.015 394.682 280.795 396.461 282.99 396.461H285.828C288.024 396.461 289.803 394.682 289.803 392.486V390.618C289.803 388.423 288.024 386.643 285.828 386.643H282.99C280.795 386.643 279.015 388.423 279.015 390.618V392.486ZM264.252 376.817C266.448 376.817 268.227 375.038 268.227 372.842V370.974C268.227 368.779 266.448 366.999 264.252 366.999H261.414C259.219 366.999 257.439 368.779 257.439 370.974V372.842C257.439 375.038 259.219 376.817 261.414 376.817H264.252ZM285.828 376.817C288.024 376.817 289.803 375.038 289.803 372.842V370.974C289.803 368.779 288.024 366.999 285.828 366.999H282.99C280.795 366.999 279.015 368.779 279.015 370.974V372.842C279.015 375.038 280.795 376.817 282.99 376.817H285.828ZM379.176 431.799C379.176 433.994 380.956 435.774 383.151 435.774H385.751C387.946 435.774 389.726 433.994 389.726 431.799V427.156C389.726 424.961 387.946 423.181 385.751 423.181H383.151C380.956 423.181 379.176 424.961 379.176 427.156V431.799ZM404.25 448.366C402.055 448.366 400.275 450.146 400.275 452.341V456.984C400.275 459.18 402.055 460.959 404.25 460.959H406.85C409.045 460.959 410.825 459.18 410.825 456.984V452.341C410.825 450.146 409.045 448.366 406.85 448.366H404.25ZM425.349 448.366C423.154 448.366 421.375 450.146 421.375 452.341V456.984C421.375 459.18 423.154 460.959 425.349 460.959H427.949C430.144 460.959 431.924 459.18 431.924 456.984V452.341C431.924 450.146 430.144 448.366 427.949 448.366H425.349ZM404.25 423.189C402.055 423.189 400.275 424.969 400.275 427.164V431.807C400.275 434.002 402.055 435.782 404.25 435.782H406.85C409.045 435.782 410.825 434.002 410.825 431.807V427.164C410.825 424.969 409.045 423.189 406.85 423.189H404.25ZM425.349 423.189C423.154 423.189 421.375 424.969 421.375 427.164V431.807C421.375 434.002 423.154 435.782 425.349 435.782H427.949C430.144 435.782 431.924 434.002 431.924 431.807V427.164C431.924 424.969 430.144 423.189 427.949 423.189H425.349ZM379.184 406.621C379.184 408.817 380.964 410.596 383.159 410.596H385.759C387.954 410.596 389.734 408.817 389.734 406.621V401.979C389.734 399.783 387.954 398.004 385.759 398.004H383.159C380.964 398.004 379.184 399.783 379.184 401.979V406.621ZM400.283 406.621C400.283 408.817 402.063 410.596 404.258 410.596H406.858C409.053 410.596 410.833 408.817 410.833 406.621V401.979C410.833 399.783 409.053 398.004 406.858 398.004H404.258C402.063 398.004 400.283 399.783 400.283 401.979V406.621ZM425.357 398.004C423.162 398.004 421.382 399.783 421.382 401.979V406.621C421.382 408.817 423.162 410.596 425.357 410.596H427.957C430.152 410.596 431.932 408.817 431.932 406.621V401.979C431.932 399.783 430.152 398.004 427.957 398.004H425.357ZM358.093 381.436C358.093 383.631 359.873 385.411 362.068 385.411H364.668C366.863 385.411 368.643 383.631 368.643 381.436V376.793C368.643 374.598 366.863 372.818 364.668 372.818H362.068C359.873 372.818 358.093 374.598 358.093 376.793V381.436ZM379.192 381.436C379.192 383.631 380.972 385.411 383.167 385.411H385.767C387.962 385.411 389.742 383.631 389.742 381.436V376.793C389.742 374.598 387.962 372.818 385.767 372.818H383.167C380.972 372.818 379.192 374.598 379.192 376.793V381.436ZM400.291 381.436C400.291 383.631 402.071 385.411 404.266 385.411H406.866C409.061 385.411 410.841 383.631 410.841 381.436V376.793C410.841 374.598 409.061 372.818 406.866 372.818H404.266C402.071 372.818 400.291 374.598 400.291 376.793V381.436ZM425.365 372.818C423.17 372.818 421.39 374.598 421.39 376.793V381.436C421.39 383.631 423.17 385.411 425.365 385.411H427.965C430.16 385.411 431.94 383.631 431.94 381.436V376.793C431.94 374.598 430.16 372.818 427.965 372.818H425.365ZM358.101 356.251C358.101 358.446 359.881 360.226 362.076 360.226H364.676C366.871 360.226 368.651 358.446 368.651 356.251V351.608C368.651 349.413 366.871 347.633 364.676 347.633H362.076C359.881 347.633 358.101 349.413 358.101 351.608V356.251ZM379.2 356.251C379.2 358.446 380.98 360.226 383.175 360.226H385.775C387.97 360.226 389.75 358.446 389.75 356.251V351.608C389.75 349.413 387.97 347.633 385.775 347.633H383.175C380.98 347.633 379.2 349.413 379.2 351.608V356.251ZM400.299 356.251C400.299 358.446 402.079 360.226 404.274 360.226H406.874C409.069 360.226 410.849 358.446 410.849 356.251V351.608C410.849 349.413 409.069 347.633 406.874 347.633H404.274C402.079 347.633 400.299 349.413 400.299 351.608V356.251ZM421.398 356.251C421.398 358.446 423.178 360.226 425.373 360.226H427.973C430.168 360.226 431.948 358.446 431.948 356.251V351.608C431.948 349.413 430.168 347.633 427.973 347.633H425.373C423.178 347.633 421.398 349.413 421.398 351.608V356.251ZM358.109 331.073C358.109 333.269 359.889 335.048 362.084 335.048H364.684C366.879 335.048 368.659 333.269 368.659 331.073V326.431C368.659 324.235 366.879 322.456 364.684 322.456H362.084C359.889 322.456 358.109 324.235 358.109 326.431V331.073ZM379.208 331.073C379.208 333.269 380.988 335.048 383.183 335.048H385.783C387.978 335.048 389.758 333.269 389.758 331.073V326.431C389.758 324.235 387.978 322.456 385.783 322.456H383.183C380.988 322.456 379.208 324.235 379.208 326.431V331.073ZM400.307 331.073C400.307 333.269 402.087 335.048 404.282 335.048H406.882C409.077 335.048 410.857 333.269 410.857 331.073V326.431C410.857 324.235 409.077 322.456 406.882 322.456H404.282C402.087 322.456 400.307 324.235 400.307 326.431V331.073ZM421.406 331.073C421.406 333.269 423.186 335.048 425.381 335.048H427.981C430.176 335.048 431.956 333.269 431.956 331.073V326.431C431.956 324.235 430.176 322.456 427.981 322.456H425.381C423.186 322.456 421.406 324.235 421.406 326.431V331.073ZM358.117 305.896C358.117 308.091 359.897 309.871 362.092 309.871H364.692C366.887 309.871 368.667 308.091 368.667 305.896V301.253C368.667 299.058 366.887 297.278 364.692 297.278H362.092C359.897 297.278 358.117 299.058 358.117 301.253V305.896ZM379.216 305.896C379.216 308.091 380.996 309.871 383.191 309.871H385.791C387.986 309.871 389.766 308.091 389.766 305.896V301.253C389.766 299.058 387.986 297.278 385.791 297.278H383.191C380.996 297.278 379.216 299.058 379.216 301.253V305.896ZM400.315 305.896C400.315 308.091 402.095 309.871 404.29 309.871H406.89C409.085 309.871 410.865 308.091 410.865 305.896V301.253C410.865 299.058 409.085 297.278 406.89 297.278H404.29C402.095 297.278 400.315 299.058 400.315 301.253V305.896ZM421.414 305.896C421.414 308.091 423.194 309.871 425.389 309.871H427.989C430.184 309.871 431.964 308.091 431.964 305.896V301.253C431.964 299.058 430.184 297.278 427.989 297.278H425.389C423.194 297.278 421.414 299.058 421.414 301.253V305.896ZM358.125 280.718C358.125 282.914 359.905 284.693 362.1 284.693H364.7C366.895 284.693 368.674 282.914 368.674 280.718V276.076C368.674 273.88 366.895 272.101 364.7 272.101H362.1C359.905 272.101 358.125 273.88 358.125 276.076V280.718ZM379.224 280.718C379.224 282.914 381.004 284.693 383.199 284.693H385.799C387.994 284.693 389.774 282.914 389.774 280.718V276.076C389.774 273.88 387.994 272.101 385.799 272.101H383.199C381.004 272.101 379.224 273.88 379.224 276.076V280.718ZM400.323 280.718C400.323 282.914 402.103 284.693 404.298 284.693H406.898C409.093 284.693 410.873 282.914 410.873 280.718V276.076C410.873 273.88 409.093 272.101 406.898 272.101H404.298C402.103 272.101 400.323 273.88 400.323 276.076V280.718ZM421.422 280.718C421.422 282.914 423.202 284.693 425.397 284.693H427.997C430.192 284.693 431.972 282.914 431.972 280.718V276.076C431.972 273.88 430.192 272.101 427.997 272.101H425.397C423.202 272.101 421.422 273.88 421.422 276.076V280.718ZM596.034 429.462C598.23 429.462 600.009 427.682 600.009 425.487V420.844C600.009 418.649 598.23 416.869 596.034 416.869H593.435C591.239 416.869 589.46 418.649 589.46 420.844V425.487C589.46 427.682 591.239 429.462 593.435 429.462H596.034ZM600.009 446.029C600.009 443.834 598.23 442.054 596.034 442.054H593.435C591.239 442.054 589.46 443.834 589.46 446.029V450.672C589.46 452.867 591.239 454.647 593.435 454.647H596.034C598.23 454.647 600.009 452.867 600.009 450.672V446.029ZM621.108 446.029C621.108 443.834 619.329 442.054 617.133 442.054H614.534C612.338 442.054 610.559 443.834 610.559 446.029V450.672C610.559 452.867 612.338 454.647 614.534 454.647H617.133C619.329 454.647 621.108 452.867 621.108 450.672V446.029ZM617.133 404.284C619.329 404.284 621.108 402.504 621.108 400.309V395.666C621.108 393.471 619.329 391.691 617.133 391.691H614.534C612.338 391.691 610.559 393.471 610.559 395.666V400.309C610.559 402.504 612.338 404.284 614.534 404.284H617.133ZM596.034 404.284C598.23 404.284 600.009 402.504 600.009 400.309V395.666C600.009 393.471 598.23 391.691 596.034 391.691H593.435C591.239 391.691 589.46 393.471 589.46 395.666V400.309C589.46 402.504 591.239 404.284 593.435 404.284H596.034ZM596.034 379.107C598.23 379.107 600.009 377.327 600.009 375.132V370.489C600.009 368.294 598.23 366.514 596.034 366.514H593.435C591.239 366.514 589.46 368.294 589.46 370.489V375.132C589.46 377.327 591.239 379.107 593.435 379.107H596.034ZM617.133 379.107C619.329 379.107 621.108 377.327 621.108 375.132V370.489C621.108 368.294 619.329 366.514 617.133 366.514H614.534C612.338 366.514 610.559 368.294 610.559 370.489V375.132C610.559 377.327 612.338 379.107 614.534 379.107H617.133ZM567.939 413.88C567.939 411.684 566.16 409.905 563.964 409.905H561.365C559.169 409.905 557.39 411.684 557.39 413.88V419.62C557.39 421.815 559.169 423.595 561.365 423.595H563.964C566.16 423.595 567.939 421.815 567.939 419.62V413.88ZM542.865 450.974C545.061 450.974 546.84 449.194 546.84 446.999V441.259C546.84 439.064 545.061 437.284 542.865 437.284H540.266C538.07 437.284 536.291 439.064 536.291 441.259V446.999C536.291 449.194 538.07 450.974 540.266 450.974H542.865ZM546.84 468.639C546.84 466.443 545.061 464.664 542.865 464.664H540.266C538.07 464.664 536.291 466.443 536.291 468.639V474.379C536.291 476.574 538.07 478.354 540.266 478.354H542.865C545.061 478.354 546.84 476.574 546.84 474.379V468.639ZM546.84 413.88C546.84 411.684 545.061 409.905 542.865 409.905H540.266C538.07 409.905 536.291 411.684 536.291 413.88V419.62C536.291 421.815 538.07 423.595 540.266 423.595H542.865C545.061 423.595 546.84 421.815 546.84 419.62V413.88ZM567.939 441.259C567.939 439.064 566.16 437.284 563.964 437.284H561.365C559.169 437.284 557.39 439.064 557.39 441.259V446.999C557.39 449.194 559.169 450.974 561.365 450.974H563.964C566.16 450.974 567.939 449.194 567.939 446.999V441.259ZM567.939 468.639C567.939 466.443 566.16 464.664 563.964 464.664H561.365C559.169 464.664 557.39 466.443 557.39 468.639V474.379C557.39 476.574 559.169 478.354 561.365 478.354H563.964C566.16 478.354 567.939 476.574 567.939 474.379V468.639ZM504.65 413.88C504.65 411.684 502.87 409.905 500.675 409.905H498.075C495.88 409.905 494.1 411.684 494.1 413.88V419.62C494.1 421.815 495.88 423.595 498.075 423.595H500.675C502.87 423.595 504.65 421.815 504.65 419.62V413.88ZM525.749 413.88C525.749 411.684 523.969 409.905 521.774 409.905H519.174C516.979 409.905 515.199 411.684 515.199 413.88V419.62C515.199 421.815 516.979 423.595 519.174 423.595H521.774C523.969 423.595 525.749 421.815 525.749 419.62V413.88ZM521.774 396.215C523.969 396.215 525.749 394.435 525.749 392.24V386.5C525.749 384.305 523.969 382.525 521.774 382.525H519.174C516.979 382.525 515.199 384.305 515.199 386.5V392.24C515.199 394.435 516.979 396.215 519.174 396.215H521.774ZM500.675 396.215C502.87 396.215 504.65 394.435 504.65 392.24V386.5C504.65 384.305 502.87 382.525 500.675 382.525H498.075C495.88 382.525 494.1 384.305 494.1 386.5V392.24C494.1 394.435 495.88 396.215 498.075 396.215H500.675ZM509.937 369.861C511.636 369.861 513.013 368.484 513.013 366.784V350.789C513.013 349.09 511.636 347.712 509.937 347.712V347.712C508.237 347.712 506.86 349.09 506.86 350.789V366.784C506.86 368.484 508.237 369.861 509.937 369.861V369.861ZM509.937 336.598C511.636 336.598 513.013 335.221 513.013 333.522V317.535C513.013 315.835 511.636 314.458 509.937 314.458V314.458C508.237 314.458 506.86 315.835 506.86 317.535V333.522C506.86 335.221 508.237 336.598 509.937 336.598V336.598ZM688.436 420.852C688.436 418.656 686.657 416.877 684.461 416.877H681.862C679.666 416.877 677.887 418.656 677.887 420.852V425.495C677.887 427.69 679.666 429.469 681.862 429.469H684.461C686.657 429.469 688.436 427.69 688.436 425.495V420.852ZM709.535 420.852C709.535 418.656 707.756 416.877 705.56 416.877H702.961C700.765 416.877 698.986 418.656 698.986 420.852V425.495C698.986 427.69 700.765 429.469 702.961 429.469H705.56C707.756 429.469 709.535 427.69 709.535 425.495V420.852ZM709.535 446.029C709.535 443.834 707.756 442.054 705.56 442.054H702.961C700.765 442.054 698.986 443.834 698.986 446.029V450.672C698.986 452.867 700.765 454.647 702.961 454.647H705.56C707.756 454.647 709.535 452.867 709.535 450.672V446.029ZM688.436 471.207C688.436 469.011 686.657 467.232 684.461 467.232H681.862C679.666 467.232 677.887 469.011 677.887 471.207V475.849C677.887 478.045 679.666 479.824 681.862 479.824H684.461C686.657 479.824 688.436 478.045 688.436 475.849V471.207ZM709.535 471.207C709.535 469.011 707.756 467.232 705.56 467.232H702.961C700.765 467.232 698.986 469.011 698.986 471.207V475.849C698.986 478.045 700.765 479.824 702.961 479.824H705.56C707.756 479.824 709.535 478.045 709.535 475.849V471.207ZM688.436 446.029C688.436 443.834 686.657 442.054 684.461 442.054H681.862C679.666 442.054 677.887 443.834 677.887 446.029V450.672C677.887 452.867 679.666 454.647 681.862 454.647H684.461C686.657 454.647 688.436 452.867 688.436 450.672V446.029ZM705.56 404.284C707.756 404.284 709.535 402.504 709.535 400.309V395.666C709.535 393.471 707.756 391.691 705.56 391.691H702.961C700.765 391.691 698.986 393.471 698.986 395.666V400.309C698.986 402.504 700.765 404.284 702.961 404.284H705.56ZM684.461 404.284C686.657 404.284 688.436 402.504 688.436 400.309V395.666C688.436 393.471 686.657 391.691 684.461 391.691H681.862C679.666 391.691 677.887 393.471 677.887 395.666V400.309C677.887 402.504 679.666 404.284 681.862 404.284H684.461ZM684.461 379.107C686.657 379.107 688.436 377.327 688.436 375.132V370.489C688.436 368.294 686.657 366.514 684.461 366.514H681.862C679.666 366.514 677.887 368.294 677.887 370.489V375.132C677.887 377.327 679.666 379.107 681.862 379.107H684.461ZM705.56 379.107C707.756 379.107 709.535 377.327 709.535 375.132V370.489C709.535 368.294 707.756 366.514 705.56 366.514H702.961C700.765 366.514 698.986 368.294 698.986 370.489V375.132C698.986 377.327 700.765 379.107 702.961 379.107H705.56Z" fill="#000000"/></g></g></svg>